<svg version="1.1" viewBox="0.0 0.0 512.0 512.0" fill="none" stroke="none" stroke-linecap="square" stroke-miterlimit="10" xmlns:xlink="http://www.w3.org/1999/xlink" xmlns="http://www.w3.org/2000/svg"><clipPath id="g189aec8ce9b_0_0.0"><path d="m0 0l512.0 0l0 512.0l-512.0 0l0 -512.0z" clip-rule="nonzero"/></clipPath><g clip-path="url(#g189aec8ce9b_0_0.0)"><path fill="#000000" fill-opacity="0.0" d="m0 0l512.0 0l0 512.0l-512.0 0z" fill-rule="evenodd"/><path fill="#a90643" d="m3.8359318 192.95708l126.08585 0l0 126.08586l-126.08585 0z" fill-rule="evenodd"/><path stroke="#ffffff" stroke-width="2.0" stroke-linejoin="round" stroke-linecap="butt" d="m3.8359318 192.95708l126.08585 0l0 126.08586l-126.08585 0z" fill-rule="evenodd"/><path fill="#a90643" d="m382.07822 192.95708l126.085846 0l0 126.08586l-126.085846 0z" fill-rule="evenodd"/><path stroke="#ffffff" stroke-width="2.0" stroke-linejoin="round" stroke-linecap="butt" d="m382.07822 192.95708l126.085846 0l0 126.08586l-126.085846 0z" fill-rule="evenodd"/><path fill="#b79803" d="m255.99745 192.95708l126.08586 0l0 126.08586l-126.08586 0z" fill-rule="evenodd"/><path stroke="#ffffff" stroke-width="2.0" stroke-linejoin="round" stroke-linecap="butt" d="m255.99745 192.95708l126.08586 0l0 126.08586l-126.08586 0z" fill-rule="evenodd"/><path fill="#2442c7" d="m129.91669 192.95708l126.08588 0l0 126.08586l-126.08588 0z" fill-rule="evenodd"/><path stroke="#ffffff" stroke-width="2.0" stroke-linejoin="round" stroke-linecap="butt" d="m129.91669 192.95708l126.08588 0l0 126.08586l-126.08588 0z" fill-rule="evenodd"/></g></svg>