<?xml version="1.0" encoding="UTF-8"?>
<svg width="1200pt" height="1200pt" version="1.1" viewBox="0 0 1200 1200" xmlns="http://www.w3.org/2000/svg">
 <path d="m60 600c0-165.31 74.285-313.28 191.29-412.33l-125.7-26.715c-25.93-5.5117-42.484-31.004-36.973-56.934 5.5117-25.93 31-42.484 56.934-36.973l234.75 49.902c25.93 5.5078 42.484 31 36.973 56.93l-49.902 234.75c-5.5117 25.93-31 42.484-56.93 36.973-25.93-5.5117-42.48-31-36.969-56.93l24.199-113.85c-87.16 81.07-141.68 196.75-141.68 325.18 0 245.21 198.79 444 444 444 33.551 0 66.23-3.7227 97.652-10.773-0.77734 34.008 11.695 66.281 33.477 90.742-41.98 10.473-85.906 16.031-131.13 16.031-298.23 0-540-241.77-540-540zm888.7 412.34c117.01-99.055 191.3-247.02 191.3-412.34 0-298.23-241.77-540-540-540-45.23 0-89.164 5.5625-131.15 16.035 21.781 24.461 34.254 56.734 33.473 90.746 31.43-7.0586 64.121-10.781 97.68-10.781 245.21 0 444 198.79 444 444 0 128.44-54.535 244.14-141.71 325.21l24.207-113.89c5.5117-25.93-11.039-51.418-36.973-56.93-25.93-5.5117-51.418 11.043-56.93 36.973l-49.898 234.75c-5.5117 25.93 11.043 51.422 36.973 56.934l234.75 49.898c25.93 5.5078 51.418-11.043 56.93-36.973 5.5117-25.93-11.039-51.422-36.969-56.934z" fill="#fff" fill-rule="evenodd"/>
</svg>
